<svg xmlns="http://www.w3.org/2000/svg" version="1.1" xmlns:xlink="http://www.w3.org/1999/xlink" xmlns:svgjs="http://svgjs.dev/svgjs" width="900" height="460" preserveAspectRatio="none" viewBox="0 0 900 460"><g mask="url(&quot;#SvgjsMask1038&quot;)" fill="none"><rect width="900" height="460" x="0" y="0" fill="url(&quot;#SvgjsLinearGradient1039&quot;)"></rect><path d="M0 0L208.96 0L0 0.24z" fill="rgba(255, 255, 255, .1)"></path><path d="M0 0.24L208.96 0L522.55 0L0 164.21z" fill="rgba(255, 255, 255, .075)"></path><path d="M0 164.21L522.55 0L618.4 0L0 282.26z" fill="rgba(255, 255, 255, .05)"></path><path d="M0 282.26L618.4 0L796.88 0L0 343.09z" fill="rgba(255, 255, 255, .025)"></path><path d="M900 460L842.32 460L900 449.42z" fill="rgba(0, 0, 0, .1)"></path><path d="M900 449.42L842.32 460L417.45000000000005 460L900 301.05z" fill="rgba(0, 0, 0, .075)"></path><path d="M900 301.04999999999995L417.45 460L243.56 460L900 281.23999999999995z" fill="rgba(0, 0, 0, .05)"></path><path d="M900 281.24L243.55999999999995 460L222.95999999999995 460L900 184.25z" fill="rgba(0, 0, 0, .025)"></path></g><defs><mask id="SvgjsMask1038"><rect width="900" height="460" fill="#ffffff"></rect></mask><linearGradient x1="12.22%" y1="-23.91%" x2="87.78%" y2="123.91%" gradientUnits="userSpaceOnUse" id="SvgjsLinearGradient1039"><stop stop-color="#0e2a47" offset="0"></stop><stop stop-color="rgba(115, 32, 140, 1)" offset="1"></stop></linearGradient></defs></svg>