<svg xmlns="http://www.w3.org/2000/svg" version="1.1" xmlns:xlink="http://www.w3.org/1999/xlink" xmlns:svgjs="http://svgjs.dev/svgjs" width="700" height="460" preserveAspectRatio="none" viewBox="0 0 700 460"><g mask="url(&quot;#SvgjsMask1089&quot;)" fill="none"><path d="M-96.71 133.61C-16.81 140.44 15.95 290.64 175.18 303.81 334.41 316.98 367.74 463.04 447.07 469.38" stroke="rgba(193, 199, 205, 1)" stroke-width="2"></path><path d="M-41.52 228.64C9.93 229.22 57.28 286.14 156.09 286.14 254.89 286.14 236.11 217.45 353.7 228.64 471.29 239.83 468.42 502.31 551.31 545.06" stroke="rgba(193, 199, 205, 1)" stroke-width="2"></path><path d="M-45 163.1C41.85 168.3 113.9 305.07 261.08 328.7 408.26 352.33 353.37 517.89 414.12 543.55" stroke="rgba(193, 199, 205, 1)" stroke-width="2"></path><path d="M-40.68 339.03C31.28 328.77 69.53 158.51 188.1 159.63 306.68 160.75 328.13 429.62 416.89 464.02" stroke="rgba(193, 199, 205, 1)" stroke-width="2"></path><path d="M-93.62 176.95C-17.37 187.55 34.53 348.71 149.79 365.55 265.04 382.39 232.47 460.14 271.49 466.4" stroke="rgba(193, 199, 205, 1)" stroke-width="2"></path></g><defs><mask id="SvgjsMask1089"><rect width="700" height="460" fill="#ffffff"></rect></mask></defs></svg>