<svg xmlns="http://www.w3.org/2000/svg" version="1.1" xmlns:xlink="http://www.w3.org/1999/xlink" xmlns:svgjs="http://svgjs.dev/svgjs" width="700" height="460" preserveAspectRatio="none" viewBox="0 0 700 460"><g mask="url(&quot;#SvgjsMask1066&quot;)" fill="none"><path d="M400.72-53.88C330.06-3.25 372.8 253.72 247.18 258.07 121.55 262.42 21.66 149.33-59.91 147.67" stroke="rgba(193, 199, 205, 1)" stroke-width="2"></path><path d="M424.71-53.88C326.2 15.82 341.77 362.41 209.9 378.37 78.02 394.33 56.42 262.71-4.92 258.77" stroke="rgba(193, 199, 205, 1)" stroke-width="2"></path><path d="M389.54-36.71C315.46 12.39 356.87 275.36 225.02 278.43 93.16 281.5-15.72 151.9-104.03 149.63" stroke="rgba(193, 199, 205, 1)" stroke-width="2"></path><path d="M352.12-12.35C305.9-4.13 346.22 89.59 210.46 110.93 74.7 132.27 16.69 323.15-72.85 336.33" stroke="rgba(193, 199, 205, 1)" stroke-width="2"></path><path d="M540.83-37.26C490.98-35.54 512.51 34.11 358.01 42.6 203.51 51.09 97.18 242.58-7.63 249.6" stroke="rgba(193, 199, 205, 1)" stroke-width="2"></path></g><defs><mask id="SvgjsMask1066"><rect width="700" height="460" fill="#ffffff"></rect></mask></defs></svg>