<svg class="border shadow-md dark:border-slate-700" viewBox="0 0 1267.2 633.6" xmlns="http://www.w3.org/2000/svg" preserveAspectRatio="none" style="width: 1267.2px; height: 633.6px;"><rect class="bg" id="bg" x="0" y="0" width="1267.2" height="633.6" fill="#ffffff"/><line opacity="0.05" x1="-16" y1="6" x2="1385.2" y2="12" stroke="#62B6CB" stroke-width="3"/><line opacity="0.05" x1="-42" y1="66.344" x2="1347.2" y2="79.344" stroke="#1B4965" stroke-width="3"/><line opacity="0.05" x1="-12" y1="98.688" x2="1390.2" y2="54.688" stroke="#CAE9FF" stroke-width="3"/><line opacity="0.05" x1="-62" y1="106.03200000000001" x2="1334.2" y2="80.03200000000001" stroke="#5FA8D3" stroke-width="3"/><line opacity="0.05" x1="-40" y1="136.376" x2="1344.2" y2="106.376" stroke="#62B6CB" stroke-width="3"/><line opacity="0.05" x1="-12" y1="139.72" x2="1338.2" y2="157.72" stroke="#1B4965" stroke-width="3"/><line opacity="0.05" x1="-61" y1="164.06400000000002" x2="1351.2" y2="164.06400000000002" stroke="#CAE9FF" stroke-width="3"/><line opacity="0.05" x1="-43" y1="221.40800000000002" x2="1389.2" y2="193.40800000000002" stroke="#5FA8D3" stroke-width="3"/><line opacity="0.05" x1="-62" y1="249.752" x2="1343.2" y2="236.752" stroke="#62B6CB" stroke-width="3"/><line opacity="0.05" x1="-40" y1="270.096" x2="1376.2" y2="278.096" stroke="#1B4965" stroke-width="3"/><line opacity="0.05" x1="-57" y1="292.44" x2="1337.2" y2="285.44" stroke="#CAE9FF" stroke-width="3"/><line opacity="0.05" x1="-51" y1="279.784" x2="1368.2" y2="300.784" stroke="#5FA8D3" stroke-width="3"/><line opacity="0.05" x1="-12" y1="312.12800000000004" x2="1360.2" y2="357.12800000000004" stroke="#62B6CB" stroke-width="3"/><line opacity="0.05" x1="-46" y1="335.47200000000004" x2="1369.2" y2="382.47200000000004" stroke="#1B4965" stroke-width="3"/><line opacity="0.05" x1="-5" y1="368.81600000000003" x2="1358.2" y2="354.81600000000003" stroke="#CAE9FF" stroke-width="3"/><line opacity="0.05" x1="-17" y1="399.16" x2="1355.2" y2="411.16" stroke="#5FA8D3" stroke-width="3"/><line opacity="0.05" x1="-30" y1="450.504" x2="1365.2" y2="441.504" stroke="#62B6CB" stroke-width="3"/><line opacity="0.05" x1="-35" y1="470.848" x2="1349.2" y2="446.848" stroke="#1B4965" stroke-width="3"/><line opacity="0.05" x1="-54" y1="472.192" x2="1373.2" y2="506.192" stroke="#CAE9FF" stroke-width="3"/><line opacity="0.05" x1="-47" y1="531.5360000000001" x2="1375.2" y2="488.536" stroke="#5FA8D3" stroke-width="3"/><line opacity="0.05" x1="-32" y1="518.88" x2="1347.2" y2="542.88" stroke="#62B6CB" stroke-width="3"/><line opacity="0.05" x1="-22" y1="586.224" x2="1367.2" y2="582.224" stroke="#1B4965" stroke-width="3"/><line opacity="0.05" x1="-19" y1="567.568" x2="1347.2" y2="613.568" stroke="#CAE9FF" stroke-width="3"/><line opacity="0.05" x1="-52" y1="595.912" x2="1369.2" y2="625.912" stroke="#5FA8D3" stroke-width="3"/><line opacity="0.05" x1="-50" y1="629.2560000000001" x2="1389.2" y2="620.2560000000001" stroke="#62B6CB" stroke-width="3"/><line opacity="0.05" x1="-64" y1="653.6" x2="1352.2" y2="683.6" stroke="#1B4965" stroke-width="3"/></svg>